<?xml version="1.0" encoding="iso-8859-1"?>
<!-- Generator: Adobe Illustrator 29.3.0, SVG Export Plug-In . SVG Version: 9.03 Build 55982)  -->
<svg version="1.1" baseProfile="basic" id="Layer_1"
	 xmlns="http://www.w3.org/2000/svg" xmlns:xlink="http://www.w3.org/1999/xlink" x="0px" y="0px" viewBox="0 0 100 100"
	 xml:space="preserve">
<path style="opacity:0.35;" d="M97.623,48.217L87,39.768V21c0-0.552-0.448-1-1-1H74c-0.552,0-1,0.448-1,1v7.631L53.623,13.217
	c-0.364-0.29-0.881-0.29-1.245,0l-44,35c-0.333,0.265-0.462,0.711-0.322,1.112C8.196,49.731,8.575,50,9,50h10v38
	c0,0.552,0.448,1,1,1h21h24h21c0.552,0,1-0.448,1-1V50h10c0.425,0,0.804-0.269,0.944-0.67
	C98.084,48.928,97.955,48.482,97.623,48.217z"/>
<polygon style="fill:#565963;" points="83,41 73,41 71,18 83,18 "/>
<polygon style="fill:#565963;" points="83,85 17,85 17,46 6.54,46 50,11 93.811,46.028 83.02,46.29 "/>
<path style="fill:#CE4F32;" d="M62,85H38V64c0-6.627,5.373-12,12-12h0c6.627,0,12,5.373,12,12V85z"/>
<circle style="fill:#55BFD8;" cx="50" cy="36" r="7"/>
<g>
	<linearGradient id="SVGID_1_" gradientUnits="userSpaceOnUse" x1="46.2523" y1="27.0445" x2="54.0359" y2="45.6441">
		<stop  offset="0.0036" style="stop-color:#FFE8C7"/>
		<stop  offset="0.1527" style="stop-color:#FEE5C1"/>
		<stop  offset="0.3495" style="stop-color:#FBDDB1"/>
		<stop  offset="0.5728" style="stop-color:#F7CF95"/>
		<stop  offset="0.8138" style="stop-color:#F1BC6F"/>
		<stop  offset="1" style="stop-color:#EBAB4D"/>
	</linearGradient>
	<path style="fill:url(#SVGID_1_);" d="M42,36c0,4.411,3.589,8,8,8s8-3.589,8-8s-3.589-8-8-8S42,31.589,42,36z M56,36
		c0,3.309-2.691,6-6,6s-6-2.691-6-6s2.691-6,6-6S56,32.691,56,36z"/>
	
		<linearGradient id="SVGID_00000044151555876932925890000000310513316494839703_" gradientUnits="userSpaceOnUse" x1="31.7703" y1="7.9392" x2="72.1499" y2="104.4285">
		<stop  offset="0.0036" style="stop-color:#FFE8C7"/>
		<stop  offset="0.1527" style="stop-color:#FEE5C1"/>
		<stop  offset="0.3495" style="stop-color:#FBDDB1"/>
		<stop  offset="0.5728" style="stop-color:#F7CF95"/>
		<stop  offset="0.8138" style="stop-color:#F1BC6F"/>
		<stop  offset="1" style="stop-color:#EBAB4D"/>
	</linearGradient>
	<path style="fill:url(#SVGID_00000044151555876932925890000000310513316494839703_);" d="M94.623,45.217L84,36.768V18
		c0-0.552-0.448-1-1-1H71c-0.552,0-1,0.448-1,1v7.631L50.623,10.217c-0.364-0.29-0.881-0.29-1.245,0l-44,35
		c-0.333,0.265-0.462,0.711-0.322,1.112C5.196,46.731,5.575,47,6,47h10v38c0,0.552,0.448,1,1,1h21h24h21c0.552,0,1-0.448,1-1V47h10
		c0.425,0,0.804-0.269,0.944-0.67C95.084,45.928,94.955,45.482,94.623,45.217z M72,19h10v16.177l-10-7.955V19z M61,84H39V64
		c0-6.065,4.935-11,11-11s11,4.935,11,11V84z M83,45c-0.552,0-1,0.448-1,1v38H63V64c0-7.168-5.832-13-13-13s-13,5.832-13,13v20H18
		V46c0-0.552-0.448-1-1-1H8.863L50,12.278L91.137,45H83z"/>
</g>
</svg>